<svg viewBox="0 0 512 512" width="512" height="512" xmlns="http://www.w3.org/2000/svg">
  <defs>
    <linearGradient id="bg" x1="0" y1="0" x2="1" y2="1">
      <stop offset="0" stop-color="#FFF8F4"/>
      <stop offset="1" stop-color="#FFE7EA"/>
    </linearGradient>
    <radialGradient id="glow" cx="0.5" cy="0.62" r="0.5">
      <stop offset="0" stop-color="#E9F7EC"/>
      <stop offset="1" stop-color="#D6EAD8"/>
    </radialGradient>
  </defs>
  <rect width="512" height="512" rx="112" fill="url(#bg)"/>
  <!-- soft ground shadow -->
  <ellipse cx="256" cy="452" rx="120" ry="20" fill="#000" opacity="0.05"/>
  <!-- smiski silhouette body -->
  <path d="M150 388 C150 300 196 250 256 250 C316 250 362 300 362 388 C362 448 316 452 256 452 C196 452 150 448 150 388 Z" fill="url(#glow)"/>
  <path d="M198 300 C214 268 236 252 256 252 C256 320 256 320 256 320 C230 320 210 312 198 300 Z" fill="#F1FAF2" opacity="0.7"/>
  <!-- face -->
  <circle cx="222" cy="360" r="10" fill="#5E6B62"/>
  <circle cx="290" cy="360" r="10" fill="#5E6B62"/>
  <path d="M226 392 Q256 420 286 392" stroke="#7A8C7E" stroke-width="9" fill="none" stroke-linecap="round"/>
  <ellipse cx="200" cy="384" rx="16" ry="10" fill="#F4A6A6" opacity="0.4"/>
  <ellipse cx="312" cy="384" rx="16" ry="10" fill="#F4A6A6" opacity="0.4"/>
  <!-- stem rising from the head -->
  <path d="M256 250 C256 200 256 176 256 150" stroke="#7FBF8E" stroke-width="16" fill="none" stroke-linecap="round"/>
  <path d="M256 210 C224 206 206 184 210 162 C238 168 252 186 256 208 Z" fill="#9BD3A8"/>
  <!-- tulip bloom -->
  <path d="M176 118 C170 66 200 30 256 30 C312 30 342 66 336 118 C336 168 296 200 256 200 C216 200 176 168 176 118 Z" fill="#F4A6A6"/>
  <path d="M176 118 C176 74 200 44 256 44 C256 96 256 156 256 200 C216 200 176 168 176 118 Z" fill="#F6C6C6"/>
  <path d="M336 118 C336 74 312 44 256 44 C256 96 256 156 256 200 C296 200 336 168 336 118 Z" fill="#E88C8C"/>
  <path d="M256 44 C230 78 224 118 230 172" stroke="#E0888C" stroke-width="6" fill="none" opacity="0.4"/>
  <path d="M256 44 C282 78 288 118 282 172" stroke="#D67B7B" stroke-width="6" fill="none" opacity="0.4"/>
</svg>
